<svg width="280" height="93" xmlns="http://www.w3.org/2000/svg">
<path d="M38.8 26.7V2H53.8V72H38.8V67.3C35.3333 71.3667 30.3667 73.4 23.9 73.4C17.3 73.4 11.6667 70.8667 7 65.8C2.33333 60.7333 1.19209e-07 54.4667 1.19209e-07 47C1.19209e-07 39.6 2.33333 33.3667 7 28.3C11.7333 23.1667 17.3667 20.6 23.9 20.6C30.3667 20.6 35.3333 22.6333 38.8 26.7ZM15 47C15 50.7333 16.1 53.7 18.3 55.9C20.5 58.1 23.3667 59.2 26.9 59.2C30.4333 59.2 33.3 58.1 35.5 55.9C37.7 53.7 38.8 50.7333 38.8 47C38.8 43.2667 37.7 40.3 35.5 38.1C33.3 35.9 30.4333 34.8 26.9 34.8C23.3667 34.8 20.5 35.9 18.3 38.1C16.1 40.3 15 43.2667 15 47ZM89.8047 73.4C82.8047 73.4 76.9047 71.9 72.1047 68.9C67.3047 65.8333 63.8714 61.5667 61.8047 56.1L75.6047 48.1C78.4047 54.5667 83.3047 57.8 90.3047 57.8C96.638 57.8 99.8047 55.9 99.8047 52.1C99.8047 49.9667 98.7714 48.3667 96.7047 47.3C94.5714 46.0333 90.7714 44.6667 85.3047 43.2C79.7047 41.6667 74.9714 39.4667 71.1047 36.6C66.838 33.1333 64.7047 28.2333 64.7047 21.9C64.7047 15.4333 67.0047 10.2667 71.6047 6.4C76.2714 2.53333 81.8047 0.599995 88.2047 0.599995C93.938 0.599995 99.0047 1.96666 103.405 4.7C107.805 7.36666 111.271 11.2667 113.805 16.4L100.305 24.3C97.7714 18.9 93.738 16.2 88.2047 16.2C85.8714 16.2 84.038 16.7 82.7047 17.7C81.3714 18.7 80.7047 19.9667 80.7047 21.5C80.7047 23.1667 81.5047 24.6667 83.1047 26C84.838 27.3333 88.238 28.7333 93.3047 30.2L99.8047 32.3C101.471 32.8333 103.405 33.7333 105.605 35C108.005 36.2 109.805 37.5 111.005 38.9C114.205 42.3667 115.805 46.7 115.805 51.9C115.805 58.5 113.405 63.7667 108.605 67.7C103.805 71.5 97.538 73.4 89.8047 73.4ZM143.448 52.6L152.848 22H168.848L151.748 70.5C148.948 78.3 145.248 83.9 140.648 87.3C136.114 90.7667 130.314 92.3333 123.248 92V78C126.714 78 129.381 77.3667 131.248 76.1C133.114 74.9 134.614 72.7667 135.748 69.7L115.848 22H132.348L143.448 52.6ZM203.675 20.6C209.075 20.6 213.508 22.4333 216.975 26.1C220.575 29.8333 222.375 34.9 222.375 41.3V72H207.375V43.5C207.375 40.6333 206.575 38.4 204.975 36.8C203.375 35.2 201.275 34.4 198.675 34.4C195.742 34.4 193.442 35.3 191.775 37.1C190.175 38.8333 189.375 41.3667 189.375 44.7V72H174.375V22H189.375V26.7C192.375 22.6333 197.142 20.6 203.675 20.6ZM256.676 73.4C249.076 73.4 242.742 70.8667 237.676 65.8C232.676 60.7333 230.176 54.4667 230.176 47C230.176 39.5333 232.676 33.2667 237.676 28.2C242.742 23.1333 249.076 20.6 256.676 20.6C261.409 20.6 265.809 21.7667 269.876 24.1C273.942 26.4333 277.076 29.5333 279.276 33.4L266.176 41C264.376 37.2667 261.142 35.4 256.476 35.4C253.209 35.4 250.509 36.5 248.376 38.7C246.242 40.8333 245.176 43.6 245.176 47C245.176 50.4 246.242 53.2 248.376 55.4C250.509 57.5333 253.209 58.6 256.476 58.6C261.209 58.6 264.442 56.7333 266.176 53L279.276 60.5C277.076 64.5 273.942 67.6667 269.876 70C265.876 72.2667 261.476 73.4 256.676 73.4Z"/>
</svg>
